<svg width="88" height="19" viewBox="0 0 88 19" fill="none" xmlns="http://www.w3.org/2000/svg">
<rect width="88" height="19" rx="9.5" fill="#0B8E00" fill-opacity="0.7"/>
<path d="M29.052 13.096C28.412 13.096 27.816 12.988 27.264 12.772C26.72 12.556 26.248 12.256 25.848 11.872C25.448 11.48 25.136 11.024 24.912 10.504C24.688 9.984 24.576 9.416 24.576 8.8C24.576 8.184 24.688 7.616 24.912 7.096C25.136 6.576 25.448 6.124 25.848 5.74C26.248 5.348 26.72 5.044 27.264 4.828C27.808 4.612 28.404 4.504 29.052 4.504C29.692 4.504 30.28 4.612 30.816 4.828C31.36 5.036 31.832 5.336 32.232 5.728C32.64 6.112 32.952 6.564 33.168 7.084C33.392 7.604 33.504 8.176 33.504 8.8C33.504 9.424 33.392 9.996 33.168 10.516C32.952 11.036 32.64 11.492 32.232 11.884C31.832 12.268 31.36 12.568 30.816 12.784C30.28 12.992 29.692 13.096 29.052 13.096ZM29.052 12.028C29.516 12.028 29.944 11.948 30.336 11.788C30.736 11.628 31.08 11.404 31.368 11.116C31.664 10.82 31.892 10.476 32.052 10.084C32.22 9.692 32.304 9.264 32.304 8.8C32.304 8.336 32.22 7.908 32.052 7.516C31.892 7.124 31.664 6.784 31.368 6.496C31.08 6.2 30.736 5.972 30.336 5.812C29.944 5.652 29.516 5.572 29.052 5.572C28.58 5.572 28.144 5.652 27.744 5.812C27.352 5.972 27.008 6.2 26.712 6.496C26.416 6.784 26.184 7.124 26.016 7.516C25.856 7.908 25.776 8.336 25.776 8.8C25.776 9.264 25.856 9.692 26.016 10.084C26.184 10.476 26.416 10.82 26.712 11.116C27.008 11.404 27.352 11.628 27.744 11.788C28.144 11.948 28.58 12.028 29.052 12.028ZM38.5421 13.072C38.0141 13.072 37.5301 12.952 37.0901 12.712C36.6581 12.464 36.3101 12.1 36.0461 11.62C35.7901 11.14 35.6621 10.54 35.6621 9.82C35.6621 9.1 35.7861 8.5 36.0341 8.02C36.2901 7.54 36.6341 7.18 37.0661 6.94C37.5061 6.7 37.9981 6.58 38.5421 6.58C39.1661 6.58 39.7181 6.716 40.1981 6.988C40.6781 7.26 41.0581 7.64 41.3381 8.128C41.6181 8.608 41.7581 9.172 41.7581 9.82C41.7581 10.468 41.6181 11.036 41.3381 11.524C41.0581 12.012 40.6781 12.392 40.1981 12.664C39.7181 12.936 39.1661 13.072 38.5421 13.072ZM35.1701 15.328V6.64H36.2741V8.356L36.2021 9.832L36.3221 11.308V15.328H35.1701ZM38.4461 12.064C38.8541 12.064 39.2181 11.972 39.5381 11.788C39.8661 11.604 40.1221 11.344 40.3061 11.008C40.4981 10.664 40.5941 10.268 40.5941 9.82C40.5941 9.364 40.4981 8.972 40.3061 8.644C40.1221 8.308 39.8661 8.048 39.5381 7.864C39.2181 7.68 38.8541 7.588 38.4461 7.588C38.0461 7.588 37.6821 7.68 37.3541 7.864C37.0341 8.048 36.7781 8.308 36.5861 8.644C36.4021 8.972 36.3101 9.364 36.3101 9.82C36.3101 10.268 36.4021 10.664 36.5861 11.008C36.7781 11.344 37.0341 11.604 37.3541 11.788C37.6821 11.972 38.0461 12.064 38.4461 12.064ZM46.1818 13.072C45.5018 13.072 44.9018 12.932 44.3818 12.652C43.8698 12.372 43.4698 11.988 43.1818 11.5C42.9018 11.012 42.7618 10.452 42.7618 9.82C42.7618 9.188 42.8978 8.628 43.1698 8.14C43.4498 7.652 43.8298 7.272 44.3098 7C44.7978 6.72 45.3458 6.58 45.9538 6.58C46.5698 6.58 47.1138 6.716 47.5858 6.988C48.0578 7.26 48.4258 7.644 48.6898 8.14C48.9618 8.628 49.0978 9.2 49.0978 9.856C49.0978 9.904 49.0938 9.96 49.0858 10.024C49.0858 10.088 49.0818 10.148 49.0738 10.204H43.6618V9.376H48.4738L48.0058 9.664C48.0138 9.256 47.9298 8.892 47.7538 8.572C47.5778 8.252 47.3338 8.004 47.0218 7.828C46.7178 7.644 46.3618 7.552 45.9538 7.552C45.5538 7.552 45.1978 7.644 44.8858 7.828C44.5738 8.004 44.3298 8.256 44.1538 8.584C43.9778 8.904 43.8898 9.272 43.8898 9.688V9.88C43.8898 10.304 43.9858 10.684 44.1778 11.02C44.3778 11.348 44.6538 11.604 45.0058 11.788C45.3578 11.972 45.7618 12.064 46.2178 12.064C46.5938 12.064 46.9338 12 47.2378 11.872C47.5498 11.744 47.8218 11.552 48.0538 11.296L48.6898 12.04C48.4018 12.376 48.0418 12.632 47.6098 12.808C47.1858 12.984 46.7098 13.072 46.1818 13.072ZM54.0935 6.58C54.6135 6.58 55.0695 6.68 55.4615 6.88C55.8615 7.08 56.1735 7.384 56.3975 7.792C56.6215 8.2 56.7335 8.716 56.7335 9.34V13H55.5815V9.472C55.5815 8.856 55.4295 8.392 55.1255 8.08C54.8295 7.768 54.4095 7.612 53.8655 7.612C53.4575 7.612 53.1015 7.692 52.7975 7.852C52.4935 8.012 52.2575 8.248 52.0895 8.56C51.9295 8.872 51.8495 9.26 51.8495 9.724V13H50.6975V6.64H51.8015V8.356L51.6215 7.9C51.8295 7.484 52.1495 7.16 52.5815 6.928C53.0135 6.696 53.5175 6.58 54.0935 6.58ZM58.8654 13V6.64H60.0174V13H58.8654ZM59.4414 5.416C59.2174 5.416 59.0294 5.344 58.8774 5.2C58.7334 5.056 58.6614 4.88 58.6614 4.672C58.6614 4.456 58.7334 4.276 58.8774 4.132C59.0294 3.988 59.2174 3.916 59.4414 3.916C59.6654 3.916 59.8494 3.988 59.9934 4.132C60.1454 4.268 60.2214 4.44 60.2214 4.648C60.2214 4.864 60.1494 5.048 60.0054 5.2C59.8614 5.344 59.6734 5.416 59.4414 5.416ZM65.613 6.58C66.133 6.58 66.589 6.68 66.981 6.88C67.381 7.08 67.693 7.384 67.917 7.792C68.141 8.2 68.253 8.716 68.253 9.34V13H67.101V9.472C67.101 8.856 66.949 8.392 66.645 8.08C66.349 7.768 65.929 7.612 65.385 7.612C64.977 7.612 64.621 7.692 64.317 7.852C64.013 8.012 63.777 8.248 63.609 8.56C63.449 8.872 63.369 9.26 63.369 9.724V13H62.217V6.64H63.321V8.356L63.141 7.9C63.349 7.484 63.669 7.16 64.101 6.928C64.533 6.696 65.037 6.58 65.613 6.58ZM73.169 15.4C72.585 15.4 72.017 15.316 71.465 15.148C70.921 14.988 70.477 14.756 70.133 14.452L70.685 13.564C70.981 13.82 71.345 14.02 71.777 14.164C72.209 14.316 72.661 14.392 73.133 14.392C73.885 14.392 74.437 14.216 74.789 13.864C75.141 13.512 75.317 12.976 75.317 12.256V10.912L75.437 9.652L75.377 8.38V6.64H76.469V12.136C76.469 13.256 76.189 14.08 75.629 14.608C75.069 15.136 74.249 15.4 73.169 15.4ZM73.025 12.736C72.409 12.736 71.857 12.608 71.369 12.352C70.889 12.088 70.505 11.724 70.217 11.26C69.937 10.796 69.797 10.26 69.797 9.652C69.797 9.036 69.937 8.5 70.217 8.044C70.505 7.58 70.889 7.22 71.369 6.964C71.857 6.708 72.409 6.58 73.025 6.58C73.569 6.58 74.065 6.692 74.513 6.916C74.961 7.132 75.317 7.468 75.581 7.924C75.853 8.38 75.989 8.956 75.989 9.652C75.989 10.34 75.853 10.912 75.581 11.368C75.317 11.824 74.961 12.168 74.513 12.4C74.065 12.624 73.569 12.736 73.025 12.736ZM73.157 11.728C73.581 11.728 73.957 11.64 74.285 11.464C74.613 11.288 74.869 11.044 75.053 10.732C75.245 10.42 75.341 10.06 75.341 9.652C75.341 9.244 75.245 8.884 75.053 8.572C74.869 8.26 74.613 8.02 74.285 7.852C73.957 7.676 73.581 7.588 73.157 7.588C72.733 7.588 72.353 7.676 72.017 7.852C71.689 8.02 71.429 8.26 71.237 8.572C71.053 8.884 70.961 9.244 70.961 9.652C70.961 10.06 71.053 10.42 71.237 10.732C71.429 11.044 71.689 11.288 72.017 11.464C72.353 11.64 72.733 11.728 73.157 11.728Z" fill="#00C208"/>
<g clip-path="url(#clip0_6_144)">
<path d="M17.1875 4.5625C16.8891 4.5625 16.603 4.68103 16.392 4.892C16.181 5.10298 16.0625 5.38913 16.0625 5.6875V7.9375C16.3609 7.9375 16.647 8.05603 16.858 8.267C17.069 8.47798 17.1875 8.76413 17.1875 9.0625V11.875C17.1875 12.1734 17.069 12.4595 16.858 12.6705C16.647 12.8815 16.3609 13 16.0625 13H12.6875C12.3891 13 12.103 12.8815 11.892 12.6705C11.681 12.4595 11.5625 12.1734 11.5625 11.875V9.0625C11.5625 8.76413 11.681 8.47798 11.892 8.267C12.103 8.05603 12.3891 7.9375 12.6875 7.9375H15.5V5.6875C15.5 5.23995 15.6778 4.81072 15.9943 4.49426C16.3107 4.17779 16.7399 4 17.1875 4C17.6351 4 18.0643 4.17779 18.3807 4.49426C18.6972 4.81072 18.875 5.23995 18.875 5.6875V7.9375C18.875 8.01209 18.8454 8.08363 18.7926 8.13637C18.7399 8.18912 18.6683 8.21875 18.5938 8.21875C18.5192 8.21875 18.4476 8.18912 18.3949 8.13637C18.3421 8.08363 18.3125 8.01209 18.3125 7.9375V5.6875C18.3125 5.38913 18.194 5.10298 17.983 4.892C17.772 4.68103 17.4859 4.5625 17.1875 4.5625ZM12.6875 8.5C12.5383 8.5 12.3952 8.55926 12.2898 8.66475C12.1843 8.77024 12.125 8.91332 12.125 9.0625V11.875C12.125 12.0242 12.1843 12.1673 12.2898 12.2727C12.3952 12.3782 12.5383 12.4375 12.6875 12.4375H16.0625C16.2117 12.4375 16.3548 12.3782 16.4602 12.2727C16.5657 12.1673 16.625 12.0242 16.625 11.875V9.0625C16.625 8.91332 16.5657 8.77024 16.4602 8.66475C16.3548 8.55926 16.2117 8.5 16.0625 8.5H12.6875Z" fill="#00C208"/>
</g>
<defs>
<clipPath id="clip0_6_144">
<rect width="9" height="9" fill="white" transform="translate(11 4)"/>
</clipPath>
</defs>
</svg>
