<svg width="32" height="32" viewBox="0 0 32 32" fill="none" xmlns="http://www.w3.org/2000/svg">
<g clip-path="url(#clip0_5_51)">
<path fill-rule="evenodd" clip-rule="evenodd" d="M5.76555 5C5.26555 2.4 7.26555 0 9.86555 0C12.1656 0 14.0656 1.9 14.0656 4.2V9.4C14.6656 9.4 15.2656 9.3 15.8656 9.3C16.4656 9.3 16.9656 9.3 17.5656 9.4V4.2C17.5656 1.9 19.4656 0 21.7656 0C24.3656 0 26.3656 2.4 25.9656 5L24.8656 11.1C28.7656 12.8 31.7656 15.8 31.7656 19.5V21.8C31.7656 24.9 29.7656 27.5 26.8656 29.2C23.9656 31 20.1656 32 15.8656 32C11.5656 32 7.76555 31 4.86555 29.2C2.06555 27.5 0.0655518 24.9 0.0655518 21.8V19.5C0.0655518 15.8 2.96555 12.8 6.86555 11.1L5.76555 5ZM23.3656 11.9L24.6656 4.7C24.9656 2.9 23.6656 1.2 21.7656 1.2C20.1656 1.2 18.8656 2.5 18.8656 4.1V10.7C18.4656 10.6 17.9656 10.6 17.5656 10.6C16.9656 10.6 16.4656 10.5 15.8656 10.5C15.2656 10.5 14.6656 10.5 14.0656 10.6C13.6656 10.6 13.1656 10.7 12.7656 10.7V4.2C12.7656 2.6 11.4656 1.3 9.86555 1.3C8.06555 1.3 6.66555 3 7.06555 4.8L8.36555 12C4.16555 13.6 1.36555 16.4 1.36555 19.6V21.9C1.36555 26.8 7.86555 30.8 15.8656 30.8C23.8656 30.8 30.3656 26.8 30.3656 21.9V19.6C30.4656 16.3 27.6656 13.5 23.3656 11.9Z" fill="#633001"/>
<path d="M30.4656 21.8C30.4656 26.7 23.9656 30.7 15.9656 30.7C7.96558 30.7 1.46558 26.7 1.46558 21.8V19.5H30.5656V21.8H30.4656Z" fill="#FEDC90"/>
<path fill-rule="evenodd" clip-rule="evenodd" d="M7.06558 4.8C6.66558 3 8.06558 1.3 9.86558 1.3C11.4656 1.3 12.7656 2.6 12.7656 4.2V10.8C13.7656 10.7 14.7656 10.6 15.8656 10.6C16.8656 10.6 17.8656 10.7 18.8656 10.8V4.2C18.8656 2.6 20.1656 1.3 21.7656 1.3C23.5656 1.3 24.9656 3 24.6656 4.8L23.3656 12C27.5656 13.6 30.4656 16.4 30.4656 19.6C30.4656 24.5 23.9656 28.5 15.9656 28.5C7.96558 28.5 1.46558 24.5 1.46558 19.6C1.46558 16.4 4.26558 13.6 8.46558 12L7.06558 4.8Z" fill="#D1884F"/>
<path d="M11.8655 18.9C11.8655 20.2 11.1655 21.3 10.2655 21.3C9.36553 21.3 8.66553 20.2 8.66553 18.9C8.66553 17.6 9.36553 16.5 10.2655 16.5C11.1655 16.5 11.8655 17.6 11.8655 18.9Z" fill="#633001"/>
<path d="M22.9656 18.9C22.9656 20.2 22.2656 21.3 21.3656 21.3C20.4656 21.3 19.7656 20.2 19.7656 18.9C19.7656 17.6 20.4656 16.5 21.3656 16.5C22.2656 16.5 22.9656 17.6 22.9656 18.9Z" fill="#633001"/>
</g>
<defs>
<clipPath id="clip0_5_51">
<rect width="31.7" height="32" fill="white" transform="translate(0.0655518)"/>
</clipPath>
</defs>
</svg>
